PathFileType	4	(X/Y/Z)	C:/Users/beibeiliu/ov580/test_trc/User2\sequence.42_training_dense_right.trc
DataRate	CameraRate	NumFrames	NumMarkers	Units	OrigDataRate	OrigDataStartFrame	OrigNumFrames
120	120	10	19	mm	120	143	200
Frame#	Time	ThumbCMC			ThumbMCP			ThumbIP			ThumbTip			IndexMCP			IndexPIP			IndexTip			MiddleMCP			MiddlePIP			MiddleTip			RingMCP			RingPIP			RingTip			PinkyMCP			PinkyPIP			PinkyTip			BackHand1			BackHand2			BackHand3	
		X0	Y0	Z0	X1	Y1	Z1	X2	Y2	Z2	X3	Y3	Z3	X4	Y4	Z4	X5	Y5	Z5	X6	Y6	Z6	X7	Y7	Z7	X8	Y8	Z8	X9	Y9	Z9	X10	Y10	Z10	X11	Y11	Z11	X12	Y12	Z12	X13	Y13	Z13	X14	Y14	Z14	X15	Y15	Z15	X16	Y16	Z16	X17	Y17	Z17	X18	Y18	Z18	
142	1.18333	50.2909	67.5914	20.6043	17.1682	68.2505	3.13939	1.80118	65.1212	-31.4112	17.1259	52.0003	-52.7406	53.4398	104.908	-53.5541	28.3495	93.82	-69.6865	21.0756	65.6718	-48.4879	64.9421	91.5653	-71.2248	37.6458	74.9945	-84.7771	33.3478	48.3509	-50.2333	68.6384	69.2206	-81.1806	43.9209	56.3528	-84.6933	43.7376	37.6694	-48.1313	78.8148	44.9809	-76.7458	48.713	34.0338	-74.8575	51.5461	20.5966	-42.2751	107.829	56.2879	-23.716	121.082	43.0859	-1.23916	93.9476	76.0258	6.2691	
143	1.19167	52.6548	67.6389	19.5294	18.2227	68.9921	6.91367	-0.0979331	65.9719	-28.5662	18.9918	54.7162	-52.8676	54.7497	105.579	-51.6231	28.3031	93.3501	-71.6172	24.0861	64.7716	-51.5767	68.1805	92.6265	-70.1952	39.5427	77.0198	-87.5928	32.0249	50.9151	-54.3192	76.219	73.0581	-77.334	47.2843	55.8724	-88.4473	42.6602	40.6018	-57.661	86.5852	48.4844	-75.8906	55.788	38.591	-84.9084	47.424	28.1282	-53.0063	108.36	61.6633	-26.9103	118.888	42.7088	5.04796	92.2288	74.1806	4.34944	
144	1.2	53.8386	65.5892	24.8413	16.596	69.0269	8.75213	1.2298	65.0648	-23.9215	14.3196	54.3566	-49.5262	54.5017	107.605	-54.9149	32.683	93.7999	-75.8741	20.2047	69.4304	-55.5631	68.1834	95.7505	-67.6155	40.7609	80.6608	-88.9843	30.6737	53.803	-62.5939	78.4807	77.2831	-79.7952	55.6101	65.5629	-94.3542	43.3277	41.6912	-64.6576	91.3599	51.2776	-77.5395	58.15	44.8303	-89.7829	46.4838	31.7835	-67.1217	106.663	60.1744	-27.6319	119.588	45.3339	5.93319	93.4558	77.5447	3.91947	
145	1.20833	52.998	66.1143	23.303	18.4802	68.8155	6.17459	-0.791646	63.2663	-23.4842	16.2276	52.6257	-48.5377	56.3421	105.122	-56.187	34.2141	98.4962	-77.0164	19.3955	69.5367	-58.5099	71.8635	96.0335	-68.6184	43.7615	86.345	-93.1118	29.6195	54.8861	-70.6634	81.9135	78.9967	-77.6159	56.2753	69.7553	-96.6175	42.0876	44.7008	-73.1401	92.8944	52.4339	-73.8463	66.42	49.5909	-94.5674	45.8134	29.5514	-77.565	109.605	55.7226	-26.0631	119.36	45.5426	3.57536	94.6107	74.9707	3.35206	
146	1.21667	51.4097	67.5657	19.5277	19.9448	65.7371	5.97771	2.41638	60.383	-28.2999	17.9753	47.4716	-47.8578	52.5202	108.515	-55.3425	31.4154	102.099	-75.4003	19.3129	66.6109	-61.6418	73.4623	96.7467	-68.7048	48.013	90.9765	-96.7656	26.3448	58.737	-79.4618	86.4697	77.442	-75.4076	63.3418	74.8813	-99.4063	40.4766	52.1081	-85.6805	95.9305	53.1197	-76.0478	70.603	52.7617	-98.1789	45.0953	38.0129	-84.8898	106.686	60.3963	-27.0642	118.178	44.9842	0.655609	92.4317	73.7056	4.50873	
147	1.225	49.4	65.5138	20.2126	18.3385	60.4432	3.19421	4.55188	52.6114	-29.7879	22.2983	41.6682	-49.6645	50.8998	103.507	-53.9269	26.8531	98.2281	-76.2442	13.5253	64.4213	-65.4486	77.9039	98.8809	-69.4269	52.5473	101.51	-99.5133	23.5857	74.4682	-97.6418	90.1334	80.1786	-71.8192	76.4366	84.178	-100.57	45.112	65.1151	-104.029	97.4927	51.8805	-68.7429	85.6116	55.3318	-100.202	56.6843	44.3099	-107.209	105.973	57.6118	-25.2249	116.493	47.5655	0.134851	92.3739	72.5146	3.74681	
148	1.23333	47.9028	59.3555	19.7787	14.1102	53.6327	-0.520906	1.90124	45.9409	-35.6592	20.354	35.8784	-55.9181	41.3635	103.858	-51.4353	18.0694	92.8595	-73.9252	5.11534	60.2851	-67.711	74.1003	103.286	-62.0212	60.5252	114.551	-92.5429	29.6852	97.8983	-115.05	90.7283	84.8836	-67.3244	85.7271	94.2745	-96.024	57.0634	89.2218	-116.46	102.184	54.8365	-68.7818	97.631	60.061	-101.565	72.7903	56.8863	-120.583	103.194	57.0095	-26.8327	116.062	47.354	3.07202	90.5846	72.6575	4.99299	
149	1.24167	40.8624	52.2249	23.7165	12.8527	44.7054	2.78471	-1.85244	39.3122	-35.712	20.3213	33.1744	-56.1598	36.7971	100.066	-46.1162	15.0701	93.135	-68.3725	5.53867	59.7353	-72.0971	66.183	104.709	-51.8585	52.4961	123.341	-79.8904	31.9302	125.611	-111.707	85.1701	88.8461	-60.2536	82.9969	103.264	-84.5614	66.6792	113.632	-115.881	100.247	60.5241	-65.7409	102.5	70.4524	-93.4335	92.8971	76.2341	-120.054	99.99	60.6157	-20.0395	114.453	48.1769	5.75511	80.2639	73.0474	10.4431	
150	1.25	39.8203	48.2345	25.8499	10.3936	42.2251	0.618425	-1.16848	36.7787	-32.1726	14.655	34.7612	-59.3546	29.5891	98.7364	-39.6306	7.401	91.628	-63.47	1.89975	52.0897	-64.7966	59.4198	106.983	-49.5488	45.0371	126.319	-75.1789	28.243	137.018	-102.76	81.6076	89.7291	-56.6276	78.0485	110.385	-80.9651	68.5523	124.43	-101.421	96.0511	63.1836	-60.9034	101.073	73.4056	-84.194	102.863	86.0863	-109.854	96.347	64.8124	-17.5051	109.671	51.8669	8.85085	77.0635	71.9257	12.7763	
151	1.25833	37.2349	49.5351	25.6017	8.0251	40.4658	3.55221	0.29588	38.299	-32.7632	13.3439	33.7989	-56.7347	27.4983	97.6989	-37.5788	10.0748	88.9798	-63.9884	5.20279	49.7073	-63.2119	57.3484	104.431	-47.1742	41.6209	124.55	-70.6649	24.4622	137.468	-94.4932	81.4811	92.9541	-59.6784	76.9023	110.083	-79.698	68.9135	123.817	-99.3971	99.0009	61.6246	-60.8017	100.038	75.112	-84.7321	103.599	87.5831	-107.124	94.7617	64.51	-15.0962	112.872	49.2235	11.541	75.2998	71.5201	15.0326	
